<svg xmlns="http://www.w3.org/2000/svg" width="2080" height="1089" viewBox="0 0 2080 1089" version="1.1"><path d="M 702.629 326.573 C 686.192 329.129, 670.656 334.671, 656.782 342.927 C 634.044 356.457, 618.972 375.586, 611.392 400.536 C 608.938 408.612, 608.660 411.085, 608.584 425.500 C 608.494 442.718, 609.657 449.453, 614.686 460.824 C 626.742 488.086, 651.752 506.698, 709 531.012 C 746.863 547.094, 763.027 557.909, 769.431 571.447 C 777.840 589.222, 769.876 610.880, 751.301 620.749 C 742.536 625.407, 734.692 627.056, 721.245 627.069 C 695.133 627.096, 668.459 616.899, 643.125 597.206 C 636.628 592.156, 634.565 591.010, 633.926 592.098 C 633.472 592.869, 625.890 603.400, 617.076 615.500 C 608.262 627.600, 601.039 638.024, 601.025 638.664 C 600.992 640.181, 614.445 651.347, 624 657.733 C 644.618 671.514, 672.598 681.760, 698.500 685.014 C 711.486 686.645, 733.784 686.415, 745.498 684.527 C 757.657 682.569, 773.565 677.368, 783.991 671.944 C 801.047 663.071, 817.469 646.484, 825.755 629.763 C 840.375 600.257, 839.868 563.299, 824.495 537.992 C 811.212 516.126, 790.611 501.358, 748.500 483.515 C 714.377 469.057, 709.468 466.846, 700.019 461.682 C 688.906 455.608, 678.599 446.063, 674.989 438.500 C 671.416 431.017, 671.527 418.688, 675.237 410.704 C 678.462 403.767, 687.329 394.653, 694.675 390.724 C 720.203 377.073, 760.762 384.326, 794.580 408.589 C 798.896 411.686, 802.558 413.832, 802.718 413.360 C 802.878 412.887, 809.039 401.250, 816.409 387.500 L 829.809 362.500 826.155 359.142 C 812.364 346.470, 784.321 333.127, 761.959 328.597 C 743.346 324.826, 719.167 324.001, 702.629 326.573 M 908.500 330 L 879.500 330.500 879.500 504.500 L 879.500 678.500 911.750 678.764 L 944 679.028 944 610.645 C 944 534.896, 944.165 532.444, 950.360 515.951 C 958.074 495.412, 971.165 480.346, 988.500 472.054 C 997.835 467.589, 1003.290 466.146, 1013.937 465.325 C 1028.593 464.195, 1043.088 469.336, 1050.281 478.216 C 1054.747 483.730, 1056.414 487.085, 1059.181 496.128 L 1061.436 503.500 1061.759 591.250 L 1062.082 679 1094.083 679 L 1126.084 679 1125.718 582.750 C 1125.394 497.403, 1125.164 485.654, 1123.684 479.029 C 1113.632 434.016, 1087.315 410.359, 1043 406.500 C 1033.834 405.701, 1016.910 407.349, 1006.345 410.068 C 995.131 412.954, 978.011 421.655, 968.257 429.427 C 959.809 436.158, 950.810 446.263, 946.135 454.270 L 943.500 458.783 943.500 394.221 L 943.500 329.659 940.500 329.579 C 938.850 329.536, 924.450 329.725, 908.500 330 M 1204.250 329.749 L 1173 330.028 1173 359.514 L 1173 389 1205 389 L 1237 389 1237 359 C 1237 342.500, 1236.662 329.106, 1236.250 329.235 C 1235.838 329.365, 1221.438 329.596, 1204.250 329.749 M 40.006 330.750 C 40.010 331.163, 41.324 336.487, 42.927 342.582 C 54.180 385.371, 77.926 425.396, 114 462.378 C 145.763 494.939, 181.987 521.421, 222.750 541.881 C 227.287 544.159, 231 546.186, 231 546.386 C 231 546.586, 225.262 549.667, 218.250 553.234 C 179.143 573.122, 147.017 596.793, 115.941 628.615 C 84.607 660.704, 63.003 694.057, 49.130 731.764 C 45.105 742.704, 39.620 761.953, 40.326 762.659 C 40.656 762.990, 80.333 740.726, 156 697.752 C 174.425 687.288, 198.050 673.890, 208.500 667.979 C 240.796 649.711, 271.846 632.116, 287 623.496 C 294.975 618.959, 326.925 600.847, 358 583.246 C 419.412 548.463, 422 546.975, 422 546.445 C 422 545.956, 398.395 532.477, 313.500 484.492 C 303.600 478.897, 280.425 465.772, 262 455.326 C 243.575 444.880, 214.325 428.301, 197 418.484 C 179.675 408.666, 149.525 391.571, 130 380.493 C 110.475 369.416, 85.050 355.031, 73.500 348.526 C 61.950 342.022, 49.966 335.193, 46.869 333.350 C 41.029 329.876, 39.996 329.484, 40.006 330.750 M 461.500 332.945 C 446.305 337.592, 433.224 342.825, 416 351.145 C 370.795 372.983, 334.275 402.299, 306.171 439.310 C 303.327 443.055, 301 446.517, 301 447.003 C 301 447.488, 306.063 450.756, 312.250 454.263 C 318.438 457.771, 336.238 467.972, 351.806 476.931 C 367.375 485.890, 380.229 493.059, 380.372 492.860 C 380.989 492.001, 472.533 331.582, 472.833 330.832 C 473.341 329.566, 471.310 329.944, 461.500 332.945 M 1421.636 407.031 C 1403.542 409.089, 1384.519 416.574, 1370.689 427.078 C 1364.498 431.780, 1354.799 442.003, 1350.997 447.835 C 1349.638 449.920, 1349.529 448.343, 1349.851 431.320 L 1350.207 412.500 1321.354 412.762 L 1292.500 413.023 1292.247 588.012 L 1291.994 763 1324.072 763 L 1356.150 763 1355.825 706.245 L 1355.500 649.491 1361.975 656.355 C 1394.662 691.010, 1452.529 695.343, 1496.601 666.436 C 1504.675 661.140, 1520.594 645.003, 1526.165 636.468 C 1536.621 620.449, 1544.308 600.501, 1548.144 579.431 C 1551.327 561.953, 1551.322 529.798, 1548.135 511.729 C 1537.935 453.906, 1506.468 417.564, 1458.768 408.515 C 1448.508 406.569, 1431.626 405.894, 1421.636 407.031 M 1656.346 407.078 C 1632.233 409.550, 1610.866 418.205, 1596.276 431.410 C 1571.956 453.422, 1566.790 494.337, 1584.732 522.844 C 1595.415 539.818, 1614.010 552.593, 1650.500 568.029 C 1689.413 584.489, 1700.043 592.477, 1699.978 605.210 C 1699.937 613.173, 1693.782 621.959, 1685.099 626.449 C 1664.310 637.199, 1624.780 627.280, 1598.680 604.762 C 1595.420 601.949, 1592.493 600.128, 1592.026 600.620 C 1591.567 601.104, 1584.632 611.585, 1576.615 623.910 L 1562.038 646.321 1565.769 649.665 C 1571.535 654.834, 1586.576 664.768, 1594.947 668.937 C 1617.141 679.992, 1639.565 685.141, 1666 685.256 C 1708.542 685.440, 1741.136 669.107, 1756.475 639.916 C 1768.156 617.686, 1767.129 587.652, 1753.998 567.497 C 1749.140 560.041, 1737.031 548.170, 1728.588 542.587 C 1718.966 536.225, 1705.725 529.667, 1685.066 521.032 C 1652.658 507.487, 1643.025 501.518, 1639.547 492.827 C 1637.247 487.077, 1638.262 480.330, 1642.349 474.215 C 1644.861 470.456, 1647.098 468.689, 1653.382 465.500 L 1661.264 461.500 1674.382 461.579 C 1687.771 461.660, 1694.041 462.760, 1706 467.123 C 1713.795 469.967, 1725.174 476.247, 1731.879 481.407 L 1737.610 485.817 1749.850 461.314 C 1759.761 441.471, 1761.860 436.537, 1760.889 435.366 C 1758.672 432.695, 1743.338 423.026, 1735.782 419.535 C 1723.296 413.766, 1709.639 409.847, 1694 407.546 C 1686.553 406.450, 1665.074 406.183, 1656.346 407.078 M 1174.007 412.833 C 1173.338 413.055, 1173 457.735, 1173 546.083 L 1173 679 1205.504 679 L 1238.007 679 1237.754 545.905 L 1237.500 412.809 1206.257 412.655 C 1189.074 412.570, 1174.561 412.650, 1174.007 412.833 M 1782.056 412.816 C 1781.460 413.014, 1781.452 413.951, 1782.033 415.316 C 1787.586 428.364, 1883.166 668.889, 1883.238 670 C 1883.292 670.825, 1875.333 691.525, 1865.552 716 C 1855.771 740.475, 1847.547 761.063, 1847.277 761.750 C 1846.891 762.733, 1853.091 763, 1876.284 763 L 1905.783 763 1907.487 758.750 C 1908.424 756.413, 1917.292 733.350, 1927.193 707.500 C 1952.931 640.300, 1973.397 586.893, 2008.882 494.326 C 2025.997 449.680, 2040 413.005, 2040.001 412.826 C 2040.002 412.166, 1976.478 413.138, 1975.852 413.807 C 1974.357 415.406, 1918.565 573.308, 1915.667 584.142 C 1913.925 590.655, 1912.234 595.987, 1911.908 595.992 C 1911.583 595.996, 1910.749 594.087, 1910.056 591.750 C 1909.363 589.413, 1896.432 553.525, 1881.320 512 C 1866.208 470.475, 1852.010 431.325, 1849.769 425 C 1847.527 418.675, 1845.578 413.353, 1845.437 413.174 C 1845.104 412.749, 1783.309 412.401, 1782.056 412.816 M 1401.448 466.326 C 1390.890 469.820, 1384.263 473.786, 1376.932 481 C 1366.747 491.021, 1360.397 503.218, 1356.366 520.500 C 1353.564 532.511, 1353.800 562.416, 1356.782 573.242 C 1364.424 600.989, 1379.072 618.839, 1400.161 626.102 C 1408.851 629.095, 1424.969 629.793, 1434.376 627.585 C 1459.729 621.632, 1477.605 601.058, 1484.671 569.698 C 1486.906 559.780, 1486.826 534.394, 1484.526 523.561 C 1478.334 494.392, 1463.175 474.715, 1440.839 466.849 C 1435.807 465.077, 1431.820 464.552, 1421.500 464.305 C 1410.047 464.030, 1407.661 464.271, 1401.448 466.326" stroke="none" fill="#044f8f" fill-rule="evenodd"/><path d="M -0 544.500 L -0 1089.001 1040.250 1088.750 L 2080.500 1088.500 2080.751 544.250 L 2081.002 0 1040.501 0 L 0 0 -0 544.500 M 0.496 545 C 0.496 844.475, 0.610 966.988, 0.750 817.250 C 0.889 667.513, 0.889 422.488, 0.750 272.750 C 0.610 123.013, 0.496 245.525, 0.496 545 M 702.629 326.573 C 686.192 329.129, 670.656 334.671, 656.782 342.927 C 634.044 356.457, 618.972 375.586, 611.392 400.536 C 608.938 408.612, 608.660 411.085, 608.584 425.500 C 608.494 442.718, 609.657 449.453, 614.686 460.824 C 626.742 488.086, 651.752 506.698, 709 531.012 C 746.863 547.094, 763.027 557.909, 769.431 571.447 C 777.840 589.222, 769.876 610.880, 751.301 620.749 C 742.536 625.407, 734.692 627.056, 721.245 627.069 C 695.133 627.096, 668.459 616.899, 643.125 597.206 C 636.628 592.156, 634.565 591.010, 633.926 592.098 C 633.472 592.869, 625.890 603.400, 617.076 615.500 C 608.262 627.600, 601.039 638.024, 601.025 638.664 C 600.992 640.181, 614.445 651.347, 624 657.733 C 644.618 671.514, 672.598 681.760, 698.500 685.014 C 711.486 686.645, 733.784 686.415, 745.498 684.527 C 757.657 682.569, 773.565 677.368, 783.991 671.944 C 801.047 663.071, 817.469 646.484, 825.755 629.763 C 840.375 600.257, 839.868 563.299, 824.495 537.992 C 811.212 516.126, 790.611 501.358, 748.500 483.515 C 714.377 469.057, 709.468 466.846, 700.019 461.682 C 688.906 455.608, 678.599 446.063, 674.989 438.500 C 671.416 431.017, 671.527 418.688, 675.237 410.704 C 678.462 403.767, 687.329 394.653, 694.675 390.724 C 720.203 377.073, 760.762 384.326, 794.580 408.589 C 798.896 411.686, 802.558 413.832, 802.718 413.360 C 802.878 412.887, 809.039 401.250, 816.409 387.500 L 829.809 362.500 826.155 359.142 C 812.364 346.470, 784.321 333.127, 761.959 328.597 C 743.346 324.826, 719.167 324.001, 702.629 326.573 M 908.500 330 L 879.500 330.500 879.500 504.500 L 879.500 678.500 911.750 678.764 L 944 679.028 944 610.645 C 944 534.896, 944.165 532.444, 950.360 515.951 C 958.074 495.412, 971.165 480.346, 988.500 472.054 C 997.835 467.589, 1003.290 466.146, 1013.937 465.325 C 1028.593 464.195, 1043.088 469.336, 1050.281 478.216 C 1054.747 483.730, 1056.414 487.085, 1059.181 496.128 L 1061.436 503.500 1061.759 591.250 L 1062.082 679 1094.083 679 L 1126.084 679 1125.718 582.750 C 1125.394 497.403, 1125.164 485.654, 1123.684 479.029 C 1113.632 434.016, 1087.315 410.359, 1043 406.500 C 1033.834 405.701, 1016.910 407.349, 1006.345 410.068 C 995.131 412.954, 978.011 421.655, 968.257 429.427 C 959.809 436.158, 950.810 446.263, 946.135 454.270 L 943.500 458.783 943.500 394.221 L 943.500 329.659 940.500 329.579 C 938.850 329.536, 924.450 329.725, 908.500 330 M 1204.250 329.749 L 1173 330.028 1173 359.514 L 1173 389 1205 389 L 1237 389 1237 359 C 1237 342.500, 1236.662 329.106, 1236.250 329.235 C 1235.838 329.365, 1221.438 329.596, 1204.250 329.749 M 40.006 330.750 C 40.010 331.163, 41.324 336.487, 42.927 342.582 C 54.180 385.371, 77.926 425.396, 114 462.378 C 145.763 494.939, 181.987 521.421, 222.750 541.881 C 227.287 544.159, 231 546.186, 231 546.386 C 231 546.586, 225.262 549.667, 218.250 553.234 C 179.143 573.122, 147.017 596.793, 115.941 628.615 C 84.607 660.704, 63.003 694.057, 49.130 731.764 C 45.105 742.704, 39.620 761.953, 40.326 762.659 C 40.656 762.990, 80.333 740.726, 156 697.752 C 174.425 687.288, 198.050 673.890, 208.500 667.979 C 240.796 649.711, 271.846 632.116, 287 623.496 C 294.975 618.959, 326.925 600.847, 358 583.246 C 419.412 548.463, 422 546.975, 422 546.445 C 422 545.956, 398.395 532.477, 313.500 484.492 C 303.600 478.897, 280.425 465.772, 262 455.326 C 243.575 444.880, 214.325 428.301, 197 418.484 C 179.675 408.666, 149.525 391.571, 130 380.493 C 110.475 369.416, 85.050 355.031, 73.500 348.526 C 61.950 342.022, 49.966 335.193, 46.869 333.350 C 41.029 329.876, 39.996 329.484, 40.006 330.750 M 461.500 332.945 C 446.305 337.592, 433.224 342.825, 416 351.145 C 370.795 372.983, 334.275 402.299, 306.171 439.310 C 303.327 443.055, 301 446.517, 301 447.003 C 301 447.488, 306.063 450.756, 312.250 454.263 C 318.438 457.771, 336.238 467.972, 351.806 476.931 C 367.375 485.890, 380.229 493.059, 380.372 492.860 C 380.989 492.001, 472.533 331.582, 472.833 330.832 C 473.341 329.566, 471.310 329.944, 461.500 332.945 M 1421.636 407.031 C 1403.542 409.089, 1384.519 416.574, 1370.689 427.078 C 1364.498 431.780, 1354.799 442.003, 1350.997 447.835 C 1349.638 449.920, 1349.529 448.343, 1349.851 431.320 L 1350.207 412.500 1321.354 412.762 L 1292.500 413.023 1292.247 588.012 L 1291.994 763 1324.072 763 L 1356.150 763 1355.825 706.245 L 1355.500 649.491 1361.975 656.355 C 1394.662 691.010, 1452.529 695.343, 1496.601 666.436 C 1504.675 661.140, 1520.594 645.003, 1526.165 636.468 C 1536.621 620.449, 1544.308 600.501, 1548.144 579.431 C 1551.327 561.953, 1551.322 529.798, 1548.135 511.729 C 1537.935 453.906, 1506.468 417.564, 1458.768 408.515 C 1448.508 406.569, 1431.626 405.894, 1421.636 407.031 M 1656.346 407.078 C 1632.233 409.550, 1610.866 418.205, 1596.276 431.410 C 1571.956 453.422, 1566.790 494.337, 1584.732 522.844 C 1595.415 539.818, 1614.010 552.593, 1650.500 568.029 C 1689.413 584.489, 1700.043 592.477, 1699.978 605.210 C 1699.937 613.173, 1693.782 621.959, 1685.099 626.449 C 1664.310 637.199, 1624.780 627.280, 1598.680 604.762 C 1595.420 601.949, 1592.493 600.128, 1592.026 600.620 C 1591.567 601.104, 1584.632 611.585, 1576.615 623.910 L 1562.038 646.321 1565.769 649.665 C 1571.535 654.834, 1586.576 664.768, 1594.947 668.937 C 1617.141 679.992, 1639.565 685.141, 1666 685.256 C 1708.542 685.440, 1741.136 669.107, 1756.475 639.916 C 1768.156 617.686, 1767.129 587.652, 1753.998 567.497 C 1749.140 560.041, 1737.031 548.170, 1728.588 542.587 C 1718.966 536.225, 1705.725 529.667, 1685.066 521.032 C 1652.658 507.487, 1643.025 501.518, 1639.547 492.827 C 1637.247 487.077, 1638.262 480.330, 1642.349 474.215 C 1644.861 470.456, 1647.098 468.689, 1653.382 465.500 L 1661.264 461.500 1674.382 461.579 C 1687.771 461.660, 1694.041 462.760, 1706 467.123 C 1713.795 469.967, 1725.174 476.247, 1731.879 481.407 L 1737.610 485.817 1749.850 461.314 C 1759.761 441.471, 1761.860 436.537, 1760.889 435.366 C 1758.672 432.695, 1743.338 423.026, 1735.782 419.535 C 1723.296 413.766, 1709.639 409.847, 1694 407.546 C 1686.553 406.450, 1665.074 406.183, 1656.346 407.078 M 1174.007 412.833 C 1173.338 413.055, 1173 457.735, 1173 546.083 L 1173 679 1205.504 679 L 1238.007 679 1237.754 545.905 L 1237.500 412.809 1206.257 412.655 C 1189.074 412.570, 1174.561 412.650, 1174.007 412.833 M 1782.056 412.816 C 1781.460 413.014, 1781.452 413.951, 1782.033 415.316 C 1787.586 428.364, 1883.166 668.889, 1883.238 670 C 1883.292 670.825, 1875.333 691.525, 1865.552 716 C 1855.771 740.475, 1847.547 761.063, 1847.277 761.750 C 1846.891 762.733, 1853.091 763, 1876.284 763 L 1905.783 763 1907.487 758.750 C 1908.424 756.413, 1917.292 733.350, 1927.193 707.500 C 1952.931 640.300, 1973.397 586.893, 2008.882 494.326 C 2025.997 449.680, 2040 413.005, 2040.001 412.826 C 2040.002 412.166, 1976.478 413.138, 1975.852 413.807 C 1974.357 415.406, 1918.565 573.308, 1915.667 584.142 C 1913.925 590.655, 1912.234 595.987, 1911.908 595.992 C 1911.583 595.996, 1910.749 594.087, 1910.056 591.750 C 1909.363 589.413, 1896.432 553.525, 1881.320 512 C 1866.208 470.475, 1852.010 431.325, 1849.769 425 C 1847.527 418.675, 1845.578 413.353, 1845.437 413.174 C 1845.104 412.749, 1783.309 412.401, 1782.056 412.816 M 1401.448 466.326 C 1390.890 469.820, 1384.263 473.786, 1376.932 481 C 1366.747 491.021, 1360.397 503.218, 1356.366 520.500 C 1353.564 532.511, 1353.800 562.416, 1356.782 573.242 C 1364.424 600.989, 1379.072 618.839, 1400.161 626.102 C 1408.851 629.095, 1424.969 629.793, 1434.376 627.585 C 1459.729 621.632, 1477.605 601.058, 1484.671 569.698 C 1486.906 559.780, 1486.826 534.394, 1484.526 523.561 C 1478.334 494.392, 1463.175 474.715, 1440.839 466.849 C 1435.807 465.077, 1431.820 464.552, 1421.500 464.305 C 1410.047 464.030, 1407.661 464.271, 1401.448 466.326" stroke="none" fill="#fbfbfb" fill-rule="evenodd"/></svg>